PathFileType  4	(X/Y/Z) C:\Users\wagnerel85475\Documents\Thesis\opencap-core\Data\3375ffbc-daeb-4a43-b4f7-ac9899cd4c71\MarkerData\PreAugmentation
DataRate	CameraRate	NumFrames	NumMarkers	Units	OrigDataRate	OrigDataStartFrame	OrigNumFrames
60.0	60.0	11	20	m	60.0	106	423
Frame#	Time	Neck			RShoulder			RElbow			RWrist			LShoulder			LElbow			LWrist			midHip			RHip			RKnee			RAnkle			LHip			LKnee			LAnkle			LBigToe			LSmallToe			LHeel			RBigToe			RSmallToe			RHeel			
		X1	Y1	Z1	X2	Y2	Z2	X3	Y3	Z3	X4	Y4	Z4	X5	Y5	Z5	X6	Y6	Z6	X7	Y7	Z7	X8	Y8	Z8	X9	Y9	Z9	X10	Y10	Z10	X11	Y11	Z11	X12	Y12	Z12	X13	Y13	Z13	X14	Y14	Z14	X15	Y15	Z15	X16	Y16	Z16	X17	Y17	Z17	X18	Y18	Z18	X19	Y19	Z19	X20	Y20	Z20	

106	1.7500000	0.3501000	1.8140700	-0.1528100	0.3414200	1.8258700	0.0252700	0.2655300	1.5306500	0.1332100	0.3063100	1.2607400	0.2029300	0.3307900	1.8001200	-0.3302700	0.2964600	1.5074600	-0.3989400	0.3194100	1.2137300	-0.4359900	0.3172300	1.2612800	-0.1213300	0.3195600	1.2643700	-0.0117100	0.2654000	0.7865700	-0.0451800	0.1846900	0.2709700	-0.0305900	0.3101300	1.2621600	-0.2522900	0.2546400	0.8058100	-0.2046900	0.1894700	0.2549500	-0.1966700	0.3608300	0.2050000	-0.2378400	0.2842000	0.1991300	-0.2767300	0.1415400	0.2157700	-0.1779400	0.4271100	0.2104800	-0.0126800	0.3665300	0.2123900	0.0337600	0.1624000	0.2221500	-0.0393800
107	1.7666667	0.3581200	1.8127200	-0.1566700	0.3417500	1.8259700	0.0250000	0.2643900	1.5272600	0.1332100	0.2952100	1.2602900	0.1990700	0.3199900	1.8013700	-0.3344600	0.2954600	1.5037900	-0.3984500	0.2939400	1.2049800	-0.4278900	0.3271700	1.2613700	-0.1256300	0.3393000	1.2570500	-0.0212400	0.2885000	0.7811000	-0.0460200	0.1851000	0.2699900	-0.0302500	0.3105900	1.2579500	-0.2523800	0.2433700	0.7963700	-0.2093000	0.2010600	0.2576200	-0.2017200	0.3594000	0.2043800	-0.2375600	0.2841800	0.1995500	-0.2767900	0.1548700	0.2223000	-0.1814800	0.4260600	0.2103800	-0.0122100	0.3659800	0.2125800	0.0342100	0.1627900	0.2220400	-0.0393300
108	1.7833333	0.3494000	1.8054400	-0.1614400	0.3415300	1.8225500	0.0248100	0.2532500	1.5277000	0.1295400	0.3045900	1.2565800	0.1948100	0.3313300	1.7968600	-0.3391200	0.2953000	1.4999600	-0.3991800	0.2740800	1.2004900	-0.4196700	0.3164000	1.2611800	-0.1299000	0.3284200	1.2609400	-0.0252100	0.2986700	0.7816100	-0.0505000	0.1846000	0.2709600	-0.0306100	0.3104100	1.2542700	-0.2524000	0.2444900	0.7877300	-0.2092200	0.1999300	0.2618000	-0.2008200	0.3615900	0.2014000	-0.2376300	0.2952900	0.2017200	-0.2809300	0.1518200	0.2219900	-0.1818300	0.4165400	0.2121600	-0.0075600	0.3664900	0.2126000	0.0338200	0.1504200	0.2197900	-0.0430800
109	1.8000000	0.3463200	1.8010900	-0.1694900	0.3512400	1.8215900	0.0200400	0.2501500	1.5276800	0.1215400	0.3147700	1.2564000	0.1889400	0.3627800	1.7886100	-0.3511100	0.2950400	1.4963400	-0.3986300	0.2704900	1.1965400	-0.4111600	0.3160800	1.2613400	-0.1299400	0.3262400	1.2613700	-0.0334400	0.3102000	0.7750800	-0.0470300	0.1852000	0.2738500	-0.0306300	0.3206600	1.2580200	-0.2566400	0.2534000	0.7979100	-0.2132900	0.1999900	0.2659300	-0.2009600	0.3700800	0.2032200	-0.2413500	0.2951200	0.2020800	-0.2809900	0.1549900	0.2224100	-0.1814200	0.4153700	0.2122100	-0.0072100	0.3559100	0.2142400	0.0304000	0.1645300	0.2259700	-0.0399500
110	1.8166667	0.3380100	1.7980200	-0.1742600	0.3613600	1.8158100	0.0156500	0.2509200	1.5278300	0.1210300	0.3342700	1.2572400	0.1793400	0.3748400	1.7829100	-0.3551800	0.2953600	1.4964100	-0.3992700	0.2619600	1.1963900	-0.4153100	0.3040400	1.2611700	-0.1426100	0.3268000	1.2611700	-0.0336200	0.3226800	0.7762600	-0.0428600	0.1856300	0.2711600	-0.0313700	0.3203100	1.2543200	-0.2566400	0.2550000	0.7933800	-0.2134600	0.1999800	0.2620200	-0.2008800	0.3830500	0.2029100	-0.2373800	0.2958700	0.2017500	-0.2810500	0.1514200	0.2219500	-0.1818900	0.4167700	0.2123800	-0.0074900	0.3665000	0.2128700	0.0337800	0.1639700	0.2260400	-0.0399500
111	1.8333333	0.3459900	1.7972400	-0.1779100	0.3714900	1.8150200	0.0107400	0.2356600	1.5286400	0.1092900	0.3449200	1.2522400	0.1734300	0.3741800	1.7827000	-0.3633100	0.2946500	1.4963400	-0.3987100	0.2377000	1.1955200	-0.4161000	0.3038100	1.2612800	-0.1426600	0.3264600	1.2569100	-0.0337600	0.3334400	0.7780900	-0.0396400	0.1862400	0.2701600	-0.0309800	0.3204200	1.2580000	-0.2569300	0.2533900	0.7978700	-0.2135100	0.2014000	0.2578400	-0.2018500	0.3806600	0.2055200	-0.2373700	0.2951700	0.2019800	-0.2810000	0.1549400	0.2222500	-0.1814800	0.4152100	0.2122900	-0.0071300	0.3548100	0.2105100	0.0309400	0.1647600	0.2259400	-0.0398200
112	1.8500000	0.3374400	1.7987000	-0.1827900	0.3610400	1.8160800	0.0072300	0.2251200	1.5247700	0.1054000	0.3540000	1.2526700	0.1691900	0.3753400	1.7826000	-0.3636000	0.2846600	1.4967500	-0.4038500	0.2187400	1.1945800	-0.4163900	0.3043200	1.2571300	-0.1514500	0.3378600	1.2602000	-0.0384500	0.3439000	0.7826400	-0.0438500	0.1849700	0.2749000	-0.0308900	0.3208800	1.2538000	-0.2569200	0.2551400	0.8064700	-0.2131400	0.2120400	0.2602600	-0.2057700	0.3832500	0.2029500	-0.2372300	0.3064300	0.2041100	-0.2768400	0.1400300	0.2157400	-0.1864700	0.4163500	0.2126200	-0.0074600	0.3549700	0.2143500	0.0309700	0.1640400	0.2263400	-0.0398300
113	1.8666667	0.3462000	1.7938900	-0.1863000	0.3807800	1.8140900	-0.0023400	0.2337100	1.5208400	0.1005000	0.3637500	1.2520300	0.1634500	0.3748200	1.7749100	-0.3638200	0.2736600	1.4930300	-0.4080900	0.2274500	1.1901900	-0.4206000	0.3144700	1.2572000	-0.1559500	0.3370000	1.2605200	-0.0386200	0.3548600	0.7762400	-0.0404700	0.1856500	0.2740800	-0.0305300	0.3208500	1.2537500	-0.2572000	0.2541600	0.7908900	-0.2132100	0.2116300	0.2642300	-0.2059100	0.3916900	0.2048300	-0.2327500	0.3165200	0.2070400	-0.2810100	0.1433100	0.2196700	-0.1857100	0.4251100	0.2188700	-0.0121400	0.3541200	0.2226300	0.0313400	0.1668400	0.2309400	-0.0403500
114	1.8833333	0.3478900	1.7901800	-0.1873300	0.3808900	1.8137300	-0.0022800	0.2451400	1.5203700	0.0951900	0.3527400	1.2480900	0.1608700	0.3758900	1.7746100	-0.3721400	0.2629800	1.4929100	-0.4135800	0.2302600	1.1901400	-0.4205500	0.3145700	1.2569600	-0.1645000	0.3380700	1.2601600	-0.0387100	0.3559000	0.7794800	-0.0403700	0.1849900	0.2794500	-0.0306200	0.3104700	1.2498400	-0.2611400	0.2562400	0.7825300	-0.2129600	0.2123300	0.2605100	-0.2059300	0.3838700	0.2032800	-0.2375300	0.3283900	0.2093300	-0.2854400	0.1398400	0.2193700	-0.1862300	0.4059600	0.2180500	-0.0203800	0.3545600	0.2303300	0.0305900	0.1635700	0.2354300	-0.0396900
115	1.9000000	0.3570500	1.7851200	-0.1989900	0.4005200	1.8114300	-0.0117100	0.2428900	1.5204500	0.0868400	0.3528000	1.2440700	0.1600600	0.3749100	1.7747100	-0.3722400	0.2629700	1.4851300	-0.4214200	0.2268200	1.1904000	-0.4209800	0.3241600	1.2535700	-0.1688900	0.3262300	1.2567700	-0.0423600	0.3771900	0.7787000	-0.0414400	0.1857600	0.2830500	-0.0299000	0.3106200	1.2420600	-0.2614600	0.2763600	0.7770700	-0.2133600	0.2126600	0.2603200	-0.2064400	0.3721400	0.1964000	-0.2407500	0.3062000	0.2044700	-0.2853400	0.1553900	0.2224200	-0.1816200	0.3818300	0.2088300	-0.0186400	0.3531200	0.2343700	0.0316000	0.1605900	0.2569600	-0.0382700
116	1.9166667	0.3795100	1.7827300	-0.2083800	0.4100300	1.8099700	-0.0161900	0.2545900	1.5232900	0.0817000	0.3527100	1.2480100	0.1607400	0.3659300	1.7756700	-0.3768200	0.2524700	1.4895200	-0.4269600	0.2401600	1.1915700	-0.4247300	0.3249900	1.2570800	-0.1690800	0.3278700	1.2601500	-0.0424800	0.4105900	0.7858700	-0.0383300	0.1863300	0.2891800	-0.0302400	0.3108600	1.2456500	-0.2613000	0.2779000	0.7727500	-0.2134300	0.2122900	0.2604200	-0.2058000	0.3844200	0.1992700	-0.2370000	0.3072600	0.2001900	-0.2856500	0.1514500	0.2176100	-0.1816300	0.3721300	0.2143000	-0.0227700	0.3431000	0.2356700	0.0271100	0.1613100	0.2671300	-0.0379800
